<svg width="27" height="17" viewBox="0 0 27 17" fill="none" xmlns="http://www.w3.org/2000/svg">
<path d="M19.7322 1.96426C19.0848 0.879434 17.6509 0.507745 16.5295 1.13407C15.4081 1.76039 15.0239 3.14755 15.6713 4.23238L21.7671 14.4465C22.4146 15.5313 23.8485 15.903 24.9699 15.2767C26.0913 14.6503 26.4755 13.2632 25.828 12.1783L19.7322 1.96426Z" fill="#38699E"/>
<path d="M11.329 4.27167C11.9765 3.18685 11.5923 1.79969 10.4709 1.17337C9.34949 0.547042 7.91558 0.91873 7.26815 2.00355L1.17231 12.2176C0.524874 13.3025 0.909088 14.6896 2.03047 15.316C3.15186 15.9423 4.58577 15.5706 5.2332 14.4858L11.329 4.27167Z" fill="#204A76"/>
<path d="M11.3289 2.00289C10.6814 0.918068 9.24753 0.54638 8.12615 1.1727C7.00476 1.79903 6.62055 3.18619 7.26798 4.27101L13.3638 14.4851C14.0113 15.5699 15.4452 15.9416 16.5666 15.3153C17.6879 14.689 18.0722 13.3018 17.4247 12.217L11.3289 2.00289Z" fill="#38699E"/>
</svg>
