<svg width="122" height="26" viewBox="0 0 122 26" fill="none" xmlns="http://www.w3.org/2000/svg">
<path d="M58.7819 6.57753C59.7788 4.90712 59.1872 2.77118 57.4605 1.80677C55.7338 0.842357 53.5258 1.41468 52.5289 3.08509L43.1425 18.8127C42.1456 20.4831 42.7372 22.6191 44.4639 23.5835C46.1907 24.5479 48.3986 23.9756 49.3955 22.3052L58.7819 6.57753Z" fill="#204A76"/>
<path d="M58.7817 3.08398C57.7847 1.41357 55.5768 0.841248 53.8501 1.80566C52.1234 2.77007 51.5318 4.90601 52.5287 6.57642L61.9151 22.304C62.912 23.9745 65.1199 24.5468 66.8466 23.5824C68.5733 22.618 69.1649 20.482 68.168 18.8116L58.7817 3.08398Z" fill="#38699E"/>
<path d="M89.2357 18.8657C88.2388 20.5361 88.8304 22.6721 90.5571 23.6365C92.2838 24.6009 94.4918 24.0286 95.4887 22.3581L104.875 6.63052C105.872 4.96011 105.28 2.82417 103.554 1.85976C101.827 0.895349 99.619 1.46767 98.6221 3.13808L89.2357 18.8657Z" fill="#204A76"/>
<path d="M89.2359 22.3594C90.2328 24.0298 92.4408 24.6021 94.1675 23.6377C95.8942 22.6733 96.4858 20.5373 95.4889 18.8669L86.1025 3.13931C85.1056 1.46891 82.8977 0.896582 81.171 1.86099C79.4443 2.8254 78.8526 4.96135 79.8496 6.63176L89.2359 22.3594Z" fill="#38699E"/>
<path d="M73.5248 3.02453C72.5279 1.35412 70.32 0.781801 68.5933 1.74621C66.8666 2.71062 66.275 4.84657 67.2719 6.51697L76.6582 22.2446C77.6551 23.915 79.8631 24.4873 81.5898 23.5229C83.3165 22.5585 83.9081 20.4226 82.9112 18.7522L73.5248 3.02453Z" fill="#38699E"/>
<path d="M119.373 6.51808C120.37 4.84767 119.778 2.71173 118.051 1.74732C116.325 0.782908 114.117 1.35523 113.12 3.02564L103.733 18.7533C102.736 20.4237 103.328 22.5596 105.055 23.524C106.781 24.4884 108.989 23.9161 109.986 22.2457L119.373 6.51808Z" fill="#204A76"/>
<path d="M30.3832 3.02649C29.3863 1.35608 27.1784 0.783753 25.4517 1.74816C23.725 2.71258 23.1334 4.84852 24.1303 6.51893L33.5166 22.2466C34.5135 23.917 36.7215 24.4893 38.4482 23.5249C40.1749 22.5605 40.7665 20.4245 39.7696 18.7541L30.3832 3.02649Z" fill="#38699E"/>
<path d="M17.444 6.57942C18.4409 4.90902 17.8493 2.77307 16.1226 1.80866C14.3959 0.844249 12.1879 1.41657 11.191 3.08698L1.80466 18.8146C0.807743 20.485 1.39935 22.621 3.12606 23.5854C4.85276 24.5498 7.06069 23.9775 8.0576 22.3071L17.444 6.57942Z" fill="#204A76"/>
<path d="M17.4438 3.08593C16.4468 1.41553 14.2389 0.843201 12.5122 1.80761C10.7855 2.77202 10.1939 4.90797 11.1908 6.57838L20.5772 22.306C21.5741 23.9764 23.782 24.5487 25.5087 23.5843C27.2354 22.6199 27.827 20.484 26.8301 18.8136L17.4438 3.08593Z" fill="#38699E"/>
</svg>
